<?xml version="1.0" standalone="no"?>
<!DOCTYPE svg PUBLIC "-//W3C//DTD SVG 20010904//EN"
 "http://www.w3.org/TR/2001/REC-SVG-20010904/DTD/svg10.dtd">
<svg version="1.0" xmlns="http://www.w3.org/2000/svg"
 width="488.000000pt" height="366.000000pt" viewBox="0 0 488.000000 366.000000"
 preserveAspectRatio="xMidYMid meet">
<metadata>
Created by potrace 1.13, written by Peter Selinger 2001-2015
</metadata>
<g transform="translate(0.000000,366.000000) scale(0.100000,-0.100000)"
fill="#000000" stroke="none">
<path d="M1765 2373 c-48 -49 -69 -101 -70 -173 0 -109 53 -163 123 -125 73
40 117 154 93 243 -16 63 -36 82 -81 82 -27 0 -45 -7 -65 -27z"/>
<path d="M2011 2020 c-99 -27 -142 -56 -111 -75 5 -3 49 1 97 10 116 20 245
20 288 0 60 -29 70 -90 29 -173 -30 -60 -89 -116 -153 -143 -36 -16 -41 -22
-31 -34 7 -8 22 -15 34 -15 29 -1 106 -36 134 -62 40 -38 23 -125 -36 -181
-37 -35 -128 -79 -154 -75 -31 4 -118 116 -166 213 -54 108 -80 204 -93 345
-5 63 -14 125 -19 138 -20 47 -132 13 -146 -45 -4 -15 -2 -65 5 -111 24 -166
99 -354 189 -473 96 -126 246 -234 291 -209 31 16 27 55 -9 87 -16 14 -30 29
-30 33 0 3 21 11 48 18 107 29 204 125 206 207 1 54 -24 91 -87 125 l-46 26
36 24 c20 14 58 51 85 83 117 140 121 227 13 285 -49 26 -279 28 -374 2z"/>
<path d="M4234 1205 c-18 -27 -16 -34 24 -97 16 -26 16 -28 -6 -51 -20 -21
-22 -33 -22 -130 l0 -107 50 0 50 0 0 109 c0 95 -3 112 -21 135 l-21 26 26 31
c31 36 33 69 8 92 -28 26 -69 21 -88 -8z"/>
<path d="M4000 1072 c-52 -26 -80 -88 -80 -179 l0 -73 55 0 55 0 0 71 c0 74
11 109 35 109 24 0 35 -35 35 -109 l0 -71 50 0 50 0 0 85 c0 106 -15 139 -73
166 -52 23 -82 24 -127 1z"/>
<path d="M529 1041 l-39 -39 0 -91 0 -91 50 0 50 0 0 73 c0 84 16 120 47 101
15 -9 19 -27 21 -93 l3 -81 56 0 56 0 -5 83 c-7 132 -45 177 -149 177 -46 0
-55 -4 -90 -39z"/>
<path d="M2898 1069 c-16 -9 -18 -26 -18 -129 l0 -120 55 0 55 0 0 73 c0 94 6
101 64 93 58 -9 86 5 86 42 0 16 -5 33 -12 40 -17 17 -89 15 -115 -3 -18 -13
-22 -13 -33 0 -14 17 -57 19 -82 4z"/>
<path d="M3180 989 l0 -91 40 -40 c39 -39 40 -40 97 -34 32 3 65 6 73 7 8 1
29 -4 46 -12 27 -11 38 -10 79 5 67 26 85 60 85 164 l0 82 -50 0 -50 0 0 -72
c0 -84 -10 -109 -37 -92 -14 9 -19 27 -21 93 l-3 81 -49 0 -50 0 0 -71 c0 -74
-11 -109 -35 -109 -18 0 -24 25 -27 110 l-3 65 -47 3 -48 3 0 -92z"/>
<path d="M863 1050 c-89 -54 -79 -175 19 -226 15 -8 39 -14 53 -14 53 0 124
53 125 93 0 27 -73 24 -102 -5 l-21 -21 -20 24 -19 24 86 3 c95 3 97 5 72 67
-29 68 -126 96 -193 55z"/>
<path d="M1184 1060 c-11 -4 -33 -22 -47 -40 -86 -101 44 -257 163 -195 32 16
70 61 70 81 0 24 -80 18 -108 -8 -23 -23 -24 -23 -38 -4 -8 11 -14 23 -14 28
0 4 36 8 80 8 79 0 80 0 80 25 0 39 -27 83 -60 100 -31 16 -92 19 -126 5z"/>
<path d="M1423 1063 c-7 -2 -13 -20 -13 -38 0 -38 20 -55 64 -55 26 0 26 -1
26 -80 l0 -81 58 3 57 3 3 76 3 77 34 6 c43 8 62 38 46 72 -10 24 -13 24 -138
23 -71 0 -134 -3 -140 -6z"/>
<path d="M1720 998 c0 -86 19 -132 69 -165 59 -40 143 -24 186 35 16 21 21 47
23 115 l4 87 -51 0 -51 0 0 -68 c0 -74 -15 -106 -46 -100 -17 3 -19 13 -22 86
l-3 82 -54 0 -55 0 0 -72z"/>
<path d="M2215 1059 c-11 -5 -30 -25 -43 -43 -18 -27 -22 -46 -22 -114 l0 -82
50 0 50 0 0 80 c0 66 3 82 16 87 29 11 44 -25 44 -104 l0 -73 50 0 50 0 0 79
c0 58 4 82 15 91 29 24 44 -5 47 -88 l3 -77 48 -3 47 -3 0 86 c0 99 -14 133
-65 161 -23 12 -44 15 -80 10 -58 -7 -63 -7 -135 -1 -30 2 -64 0 -75 -6z"/>
<path d="M2668 1054 c-52 -28 -75 -115 -45 -174 17 -33 74 -70 109 -70 37 0
81 23 107 56 40 51 22 151 -33 188 -31 20 -102 20 -138 0z"/>
<path d="M3680 1032 c-35 -35 -40 -45 -40 -86 0 -39 6 -52 33 -83 35 -37 79
-50 180 -52 l37 -1 0 90 c0 88 -1 91 -33 126 -28 31 -41 37 -85 42 -50 4 -53
3 -92 -36z"/>
<path d="M873 780 c-33 -20 -56 -50 -68 -87 l-6 -23 133 2 c97 2 110 3 51 5
-46 2 -83 7 -83 11 1 12 27 42 37 42 6 0 16 -7 23 -15 11 -13 100 -23 100 -10
0 21 -29 56 -60 74 -47 26 -86 27 -127 1z"/>
<path d="M1195 790 c-30 -12 -73 -61 -80 -92 l-7 -28 133 2 c97 2 111 3 52 5
-46 2 -83 7 -83 11 0 5 6 17 14 27 13 18 15 18 39 2 27 -18 107 -24 107 -8 0
16 -42 61 -70 76 -32 16 -74 18 -105 5z"/>
<path d="M1795 782 c-36 -23 -65 -63 -65 -92 0 -17 6 -20 50 -20 37 0 50 4 50
15 0 8 9 19 20 25 16 9 22 6 36 -15 14 -21 24 -25 65 -25 49 0 49 0 43 28 -3
15 -21 42 -39 61 -42 43 -112 53 -160 23z"/>
<path d="M2310 720 l0 -80 50 0 50 0 0 80 0 80 -50 0 -50 0 0 -80z"/>
<path d="M2475 791 c-3 -5 -4 -41 -3 -80 l3 -71 48 0 47 0 0 80 0 80 -44 0
c-25 0 -47 -4 -51 -9z"/>
<path d="M2669 777 c-40 -27 -59 -60 -59 -104 0 -32 1 -33 43 -33 43 0 43 1
53 43 7 32 14 42 29 42 15 0 22 -10 29 -42 10 -42 10 -43 53 -43 42 0 43 1 43
33 0 44 -19 77 -59 104 -43 29 -89 29 -132 0z"/>
<path d="M3417 784 c-20 -11 -32 -12 -46 -4 -11 5 -41 10 -67 10 -41 0 -51 -5
-85 -39 -31 -31 -39 -46 -39 -75 0 -36 0 -36 44 -36 40 0 44 2 52 32 16 55 63
47 64 -9 0 -21 5 -23 50 -23 46 0 50 2 50 24 0 28 24 51 44 43 8 -3 17 -19 21
-36 6 -29 10 -31 51 -31 42 0 44 1 44 30 0 49 -27 90 -73 111 -50 22 -73 23
-110 3z"/>
<path d="M3757 791 c-62 -9 -106 -51 -114 -109 l-6 -42 47 0 c40 0 46 3 46 21
0 29 18 59 35 59 17 0 35 -30 35 -59 0 -18 6 -21 45 -21 l45 0 0 80 0 80 -42
-1 c-24 -1 -65 -5 -91 -8z"/>
<path d="M2880 715 l0 -75 55 0 55 0 0 75 0 75 -55 0 -55 0 0 -75z"/>
<path d="M3920 768 c0 -13 3 -47 6 -75 l7 -53 48 0 49 0 0 75 0 75 -55 0 c-50
0 -55 -2 -55 -22z"/>
</g>
</svg>
